<svg width="209" height="203" viewBox="0 0 209 203" fill="none" xmlns="http://www.w3.org/2000/svg">
<path d="M37.0602 24.8196L56.0302 32.872C68.2425 38.0559 82.3866 32.4493 87.0402 20.5799L94.2777 2.12058C101.832 1.4791 109.586 1.61993 117.438 2.61873C125.29 3.61753 132.833 5.42253 139.986 7.93482L142.371 27.6183C143.905 40.2747 156.195 49.2438 169.316 47.2825L189.698 44.2358C198.676 56.2395 204.946 70.1103 207.772 84.9409L191.16 96.5656C180.482 104.038 178.628 118.614 187.095 128.522L200.268 143.935C193.819 157.586 184.276 169.445 172.578 178.819L153.608 170.767C141.396 165.583 127.252 171.189 122.598 183.059L115.361 201.518C107.807 202.16 100.053 202.019 92.2006 201.02C84.3487 200.021 76.8061 198.216 69.6531 195.704L67.2676 176.02C65.7337 163.364 53.4437 154.395 40.3225 156.356L19.9407 159.403C10.9628 147.399 4.69252 133.528 1.86656 118.698L18.4784 107.073C29.1568 99.6005 31.0109 85.0249 22.5434 75.1169L9.37089 59.7035C15.8198 46.0527 25.363 34.1934 37.0602 24.8196Z" fill="#00196D"/>
<path d="M139.443 106.224C137.12 124.486 119.735 137.319 100.613 134.886C81.4912 132.454 67.8731 115.677 70.1961 97.4152C72.5192 79.1528 89.9037 66.3201 109.026 68.7525C128.147 71.1849 141.766 87.9613 139.443 106.224Z" fill="#00196D"/>
<path d="M37.0602 24.8196L56.0302 32.872C68.2425 38.0559 82.3866 32.4493 87.0402 20.5799L94.2777 2.12058C101.832 1.4791 109.586 1.61993 117.438 2.61873C125.29 3.61753 132.833 5.42253 139.986 7.93482L142.371 27.6183C143.905 40.2747 156.195 49.2438 169.316 47.2825L189.698 44.2358C198.676 56.2395 204.946 70.1103 207.772 84.9409L191.16 96.5656C180.482 104.038 178.628 118.614 187.095 128.522L200.268 143.935C193.819 157.586 184.276 169.445 172.578 178.819L153.608 170.767C141.396 165.583 127.252 171.189 122.598 183.059L115.361 201.518C107.807 202.16 100.053 202.019 92.2006 201.02C84.3487 200.021 76.8061 198.216 69.6531 195.704L67.2676 176.02C65.7337 163.364 53.4437 154.395 40.3225 156.356L19.9407 159.403C10.9628 147.399 4.69252 133.528 1.86656 118.698L18.4784 107.073C29.1568 99.6005 31.0109 85.0249 22.5434 75.1169L9.37089 59.7035C15.8198 46.0527 25.363 34.1934 37.0602 24.8196Z" stroke="#F75652" stroke-width="2" stroke-linejoin="round"/>
<path d="M139.443 106.224C137.12 124.486 119.735 137.319 100.613 134.886C81.4912 132.454 67.8731 115.677 70.1961 97.4152C72.5192 79.1528 89.9037 66.3201 109.026 68.7525C128.147 71.1849 141.766 87.9613 139.443 106.224Z" stroke="#F75652" stroke-width="2" stroke-linejoin="round"/>
</svg>
