<svg width="159" height="157" viewBox="0 0 159 157" fill="none" xmlns="http://www.w3.org/2000/svg">
<path d="M87.1047 13.9862L95.0085 16.3275C100.097 17.8349 105.464 14.9663 106.776 10.0383L108.817 2.37437C111.79 1.77742 114.878 1.48232 118.044 1.52377C121.21 1.56523 124.289 1.9411 127.246 2.61571L129.085 10.3305C130.268 15.2911 135.558 18.2992 140.684 16.9257L148.646 14.7921C152.758 19.1562 155.878 24.385 157.673 30.1512L151.597 35.5233C147.691 38.9766 147.614 44.8533 151.428 48.4077L157.361 53.9371C155.416 59.6542 152.16 64.7995 147.936 69.0545L140.032 66.7131C134.944 65.2058 129.576 68.0744 128.264 73.0023L126.224 80.6663C123.25 81.2633 120.162 81.5584 116.997 81.5169C113.831 81.4755 110.751 81.0996 107.795 80.425L105.956 72.7102C104.773 67.7496 99.4824 64.7414 94.3565 66.115L86.3941 68.2486C82.2825 63.8845 79.1625 58.6557 77.368 52.8895L83.4437 47.5174C87.3493 44.0641 87.4263 38.1874 83.6124 34.633L77.6795 29.1036C79.6244 23.3864 82.8802 18.2411 87.1047 13.9862Z" fill="#00196D"/>
<path d="M131.48 41.7032C131.384 49.0663 125.055 54.9535 117.346 54.8525C109.636 54.7516 103.464 48.7007 103.561 41.3375C103.657 33.9744 109.985 28.0872 117.695 28.1882C125.405 28.2891 131.576 34.34 131.48 41.7032Z" fill="#00196D"/>
<path d="M87.1047 13.9862L95.0085 16.3275C100.097 17.8349 105.464 14.9663 106.776 10.0383L108.817 2.37437C111.79 1.77742 114.878 1.48232 118.044 1.52377C121.21 1.56523 124.289 1.9411 127.246 2.61571L129.085 10.3305C130.268 15.2911 135.558 18.2992 140.684 16.9257L148.646 14.7921C152.758 19.1562 155.878 24.385 157.673 30.1512L151.597 35.5233C147.691 38.9766 147.614 44.8533 151.428 48.4077L157.361 53.9371C155.416 59.6542 152.16 64.7995 147.936 69.0545L140.032 66.7131C134.944 65.2058 129.576 68.0744 128.264 73.0023L126.224 80.6663C123.25 81.2633 120.162 81.5584 116.997 81.5169C113.831 81.4755 110.751 81.0996 107.795 80.425L105.956 72.7102C104.773 67.7496 99.4824 64.7414 94.3565 66.115L86.3941 68.2486C82.2825 63.8845 79.1625 58.6557 77.368 52.8895L83.4437 47.5174C87.3493 44.0641 87.4263 38.1874 83.6124 34.633L77.6795 29.1036C79.6244 23.3864 82.8802 18.2411 87.1047 13.9862Z" stroke="#F75652" stroke-width="2" stroke-linejoin="round"/>
<path d="M131.48 41.7032C131.384 49.0663 125.055 54.9535 117.346 54.8525C109.636 54.7516 103.464 48.7007 103.561 41.3375C103.657 33.9744 109.985 28.0872 117.695 28.1882C125.405 28.2891 131.576 34.34 131.48 41.7032Z" stroke="#F75652" stroke-width="2" stroke-linejoin="round"/>
<path d="M22.0302 62.4098L31.5151 66.436C37.6213 69.0279 44.6933 66.2247 47.0202 60.29L50.6389 51.0603C54.416 50.7396 58.2931 50.81 62.2191 51.3094C66.1451 51.8088 69.9164 52.7113 73.4929 53.9674L74.6856 63.8091C75.4526 70.1374 81.5975 74.6219 88.1581 73.6412L98.3491 72.1179C102.838 78.1197 105.973 85.0552 107.386 92.4705L99.0802 98.2828C93.741 102.019 92.8139 109.307 97.0477 114.261L103.634 121.968C100.41 128.793 95.6379 134.723 89.7893 139.41L80.3043 135.383C74.1981 132.791 67.1261 135.595 64.7993 141.529L61.1806 150.759C57.4035 151.08 53.5263 151.009 49.6004 150.51C45.6744 150.011 41.9031 149.108 38.3266 147.852L37.1338 138.01C36.3669 131.682 30.2219 127.197 23.6613 128.178L13.4704 129.701C8.98142 123.7 5.8463 116.764 4.43333 109.349L12.7392 103.537C18.0785 99.8003 19.0055 92.5124 14.7717 87.5584L8.18549 79.8517C11.4099 73.0263 16.1815 67.0967 22.0302 62.4098Z" fill="#00196D"/>
<path d="M73.2213 103.112C72.0598 112.243 63.3675 118.659 53.8066 117.443C44.2457 116.227 37.4366 107.839 38.5981 98.7076C39.7596 89.5764 48.4519 83.1601 58.0128 84.3763C67.5738 85.5924 74.3829 93.9806 73.2213 103.112Z" fill="#00196D"/>
<path d="M22.0302 62.4098L31.5151 66.436C37.6213 69.0279 44.6933 66.2247 47.0202 60.29L50.6389 51.0603C54.416 50.7396 58.2931 50.81 62.2191 51.3094C66.1451 51.8088 69.9164 52.7113 73.4929 53.9674L74.6856 63.8091C75.4526 70.1374 81.5975 74.6219 88.1581 73.6412L98.3491 72.1179C102.838 78.1197 105.973 85.0552 107.386 92.4705L99.0802 98.2828C93.741 102.019 92.8139 109.307 97.0477 114.261L103.634 121.968C100.41 128.793 95.6379 134.723 89.7893 139.41L80.3043 135.383C74.1981 132.791 67.1261 135.595 64.7993 141.529L61.1806 150.759C57.4035 151.08 53.5263 151.009 49.6004 150.51C45.6744 150.011 41.9031 149.108 38.3266 147.852L37.1338 138.01C36.3669 131.682 30.2219 127.197 23.6613 128.178L13.4704 129.701C8.98142 123.7 5.8463 116.764 4.43333 109.349L12.7392 103.537C18.0785 99.8003 19.0055 92.5124 14.7717 87.5584L8.18549 79.8517C11.4099 73.0263 16.1815 67.0967 22.0302 62.4098Z" stroke="#F75652" stroke-width="2" stroke-linejoin="round"/>
<path d="M73.2213 103.112C72.0598 112.243 63.3675 118.659 53.8066 117.443C44.2457 116.227 37.4366 107.839 38.5981 98.7076C39.7596 89.5764 48.4519 83.1601 58.0128 84.3763C67.5738 85.5924 74.3829 93.9806 73.2213 103.112Z" stroke="#F75652" stroke-width="2" stroke-linejoin="round"/>
</svg>
