<svg width="100" height="100" viewBox="0 0 105 103" fill="none" xmlns="http://www.w3.org/2000/svg">
<path d="M18.6488 13.4098L28.1338 17.436C34.24 20.0279 41.312 17.2247 43.6388 11.29L47.2576 2.06029C51.0346 1.73955 54.9118 1.80996 58.8378 2.30937C62.7638 2.80877 66.5351 3.71127 70.1116 4.96741L71.3043 14.8091C72.0713 21.1374 78.2162 25.6219 84.7768 24.6412L94.9677 23.1179C99.4567 29.1197 102.592 36.0552 104.005 43.4705L95.6989 49.2828C90.3597 53.0191 89.4326 60.3069 93.6664 65.2609L100.253 72.9677C97.0282 79.793 92.2566 85.7227 86.408 90.4096L76.923 86.3834C70.8168 83.7914 63.7448 86.5947 61.418 92.5294L57.7993 101.759C54.0222 102.08 50.145 102.009 46.219 101.51C42.2931 101.011 38.5218 100.108 34.9453 98.852L33.7525 89.0102C32.9856 82.682 26.8406 78.1975 20.28 79.1781L10.0891 80.7015C5.6001 74.6996 2.46499 67.7642 1.05201 60.3489L9.35793 54.5366C14.6971 50.8003 15.6242 43.5124 11.3904 38.5584L4.80417 30.8517C8.02862 24.0263 12.8002 18.0967 18.6488 13.4098Z" fill="#00196D"/>
<path d="M69.84 54.1118C68.6785 63.243 59.9862 69.6593 50.4253 68.4431C40.8643 67.2269 34.0553 58.8387 35.2168 49.7076C36.3783 40.5764 45.0706 34.1601 54.6315 35.3763C64.1925 36.5924 71.0016 44.9806 69.84 54.1118Z" fill="#00196D"/>
<path d="M18.6488 13.4098L28.1338 17.436C34.24 20.0279 41.312 17.2247 43.6388 11.29L47.2576 2.06029C51.0346 1.73955 54.9118 1.80996 58.8378 2.30937C62.7638 2.80877 66.5351 3.71127 70.1116 4.96741L71.3043 14.8091C72.0713 21.1374 78.2162 25.6219 84.7768 24.6412L94.9677 23.1179C99.4567 29.1197 102.592 36.0552 104.005 43.4705L95.6989 49.2828C90.3597 53.0191 89.4326 60.3069 93.6664 65.2609L100.253 72.9677C97.0282 79.793 92.2566 85.7227 86.408 90.4096L76.923 86.3834C70.8168 83.7914 63.7448 86.5947 61.418 92.5294L57.7993 101.759C54.0222 102.08 50.145 102.009 46.219 101.51C42.2931 101.011 38.5218 100.108 34.9453 98.852L33.7525 89.0102C32.9856 82.682 26.8406 78.1975 20.28 79.1781L10.0891 80.7015C5.6001 74.6996 2.46499 67.7642 1.05201 60.3489L9.35793 54.5366C14.6971 50.8003 15.6242 43.5124 11.3904 38.5584L4.80417 30.8517C8.02862 24.0263 12.8002 18.0967 18.6488 13.4098Z" stroke="#F75652" stroke-width="2" stroke-linejoin="round"/>
<path d="M69.84 54.1118C68.6785 63.243 59.9862 69.6593 50.4253 68.4431C40.8643 67.2269 34.0553 58.8387 35.2168 49.7076C36.3783 40.5764 45.0706 34.1601 54.6315 35.3763C64.1925 36.5924 71.0016 44.9806 69.84 54.1118Z" stroke="#F75652" stroke-width="2" stroke-linejoin="round"/>
</svg>
