<svg width="83" height="83" viewBox="0 0 83 83" fill="none" xmlns="http://www.w3.org/2000/svg">
<path d="M11.1047 13.9862L19.0085 16.3275C24.0967 17.8349 29.4641 14.9663 30.7762 10.0383L32.8169 2.37437C35.7901 1.77742 38.8782 1.48232 42.044 1.52377C45.2099 1.56523 48.2892 1.9411 51.2458 2.61571L53.085 10.3305C54.2677 15.2911 59.5581 18.2992 64.6841 16.9257L72.6465 14.7921C76.758 19.1562 79.878 24.385 81.6726 30.1512L75.5969 35.5233C71.6913 38.9766 71.6143 44.8533 75.4281 48.4077L81.3611 53.9371C79.4162 59.6542 76.1603 64.7995 71.9359 69.0545L64.0321 66.7131C58.9439 65.2058 53.5764 68.0744 52.2643 73.0023L50.2237 80.6663C47.2505 81.2633 44.1623 81.5584 40.9965 81.5169C37.8307 81.4755 34.7513 81.0996 31.7948 80.425L29.9555 72.7102C28.7729 67.7496 23.4824 64.7414 18.3565 66.115L10.3941 68.2486C6.28251 63.8845 3.16254 58.6557 1.36797 52.8895L7.4437 47.5174C11.3493 44.0641 11.4263 38.1874 7.61243 34.633L1.67946 29.1036C3.6244 23.3864 6.88023 18.2411 11.1047 13.9862Z" fill="#00196D"/>
<path d="M55.48 41.7032C55.3836 49.0663 49.0554 54.9535 41.3457 54.8525C33.636 54.7516 27.4642 48.7007 27.5606 41.3375C27.657 33.9744 33.9851 28.0872 41.6949 28.1882C49.4046 28.2891 55.5764 34.34 55.48 41.7032Z" fill="#00196D"/>
<path d="M11.1047 13.9862L19.0085 16.3275C24.0967 17.8349 29.4641 14.9663 30.7762 10.0383L32.8169 2.37437C35.7901 1.77742 38.8782 1.48232 42.044 1.52377C45.2099 1.56523 48.2892 1.9411 51.2458 2.61571L53.085 10.3305C54.2677 15.2911 59.5581 18.2992 64.6841 16.9257L72.6465 14.7921C76.758 19.1562 79.878 24.385 81.6726 30.1512L75.5969 35.5233C71.6913 38.9766 71.6143 44.8533 75.4281 48.4077L81.3611 53.9371C79.4162 59.6542 76.1603 64.7995 71.9359 69.0545L64.0321 66.7131C58.9439 65.2058 53.5764 68.0744 52.2643 73.0023L50.2237 80.6663C47.2505 81.2633 44.1623 81.5584 40.9965 81.5169C37.8307 81.4755 34.7513 81.0996 31.7948 80.425L29.9555 72.7102C28.7729 67.7496 23.4824 64.7414 18.3565 66.115L10.3941 68.2486C6.28251 63.8845 3.16254 58.6557 1.36797 52.8895L7.4437 47.5174C11.3493 44.0641 11.4263 38.1874 7.61243 34.633L1.67946 29.1036C3.6244 23.3864 6.88023 18.2411 11.1047 13.9862Z" stroke="#F75652" stroke-width="2" stroke-linejoin="round"/>
<path d="M55.48 41.7032C55.3836 49.0663 49.0554 54.9535 41.3457 54.8525C33.636 54.7516 27.4642 48.7007 27.5606 41.3375C27.657 33.9744 33.9851 28.0872 41.6949 28.1882C49.4046 28.2891 55.5764 34.34 55.48 41.7032Z" stroke="#F75652" stroke-width="2" stroke-linejoin="round"/>
</svg>
