<svg width="106" height="103" viewBox="0 0 106 103" fill="none" xmlns="http://www.w3.org/2000/svg">
<path d="M19.0302 13.4098L28.5151 17.436C34.6213 20.0279 41.6933 17.2247 44.0202 11.29L47.6389 2.06029C51.416 1.73955 55.2931 1.80996 59.2191 2.30937C63.1451 2.80877 66.9164 3.71127 70.4929 4.96741L71.6856 14.8091C72.4526 21.1374 78.5975 25.6219 85.1581 24.6412L95.3491 23.1179C99.838 29.1197 102.973 36.0552 104.386 43.4705L96.0802 49.2828C90.741 53.0191 89.8139 60.3069 94.0477 65.2609L100.634 72.9677C97.4095 79.793 92.6379 85.7227 86.7893 90.4096L77.3043 86.3834C71.1981 83.7914 64.1261 86.5947 61.7993 92.5294L58.1806 101.759C54.4035 102.08 50.5263 102.009 46.6004 101.51C42.6744 101.011 38.9031 100.108 35.3266 98.852L34.1338 89.0102C33.3669 82.682 27.2219 78.1975 20.6613 79.1781L10.4704 80.7015C5.98142 74.6996 2.8463 67.7642 1.43333 60.3489L9.73925 54.5366C15.0785 50.8003 16.0055 43.5124 11.7717 38.5584L5.18549 30.8517C8.40994 24.0263 13.1815 18.0967 19.0302 13.4098Z" fill="#00196D"/>
<path d="M70.2213 54.1118C69.0598 63.243 60.3675 69.6593 50.8066 68.4431C41.2457 67.2269 34.4366 58.8387 35.5981 49.7076C36.7596 40.5764 45.4519 34.1601 55.0128 35.3763C64.5738 36.5924 71.3829 44.9806 70.2213 54.1118Z" fill="#00196D"/>
<path d="M19.0302 13.4098L28.5151 17.436C34.6213 20.0279 41.6933 17.2247 44.0202 11.29L47.6389 2.06029C51.416 1.73955 55.2931 1.80996 59.2191 2.30937C63.1451 2.80877 66.9164 3.71127 70.4929 4.96741L71.6856 14.8091C72.4526 21.1374 78.5975 25.6219 85.1581 24.6412L95.3491 23.1179C99.838 29.1197 102.973 36.0552 104.386 43.4705L96.0802 49.2828C90.741 53.0191 89.8139 60.3069 94.0477 65.2609L100.634 72.9677C97.4095 79.793 92.6379 85.7227 86.7893 90.4096L77.3043 86.3834C71.1981 83.7914 64.1261 86.5947 61.7993 92.5294L58.1806 101.759C54.4035 102.08 50.5263 102.009 46.6004 101.51C42.6744 101.011 38.9031 100.108 35.3266 98.852L34.1338 89.0102C33.3669 82.682 27.2219 78.1975 20.6613 79.1781L10.4704 80.7015C5.98142 74.6996 2.8463 67.7642 1.43333 60.3489L9.73925 54.5366C15.0785 50.8003 16.0055 43.5124 11.7717 38.5584L5.18549 30.8517C8.40994 24.0263 13.1815 18.0967 19.0302 13.4098Z" stroke="#F75652" stroke-width="2" stroke-linejoin="round"/>
<path d="M70.2213 54.1118C69.0598 63.243 60.3675 69.6593 50.8066 68.4431C41.2457 67.2269 34.4366 58.8387 35.5981 49.7076C36.7596 40.5764 45.4519 34.1601 55.0128 35.3763C64.5738 36.5924 71.3829 44.9806 70.2213 54.1118Z" stroke="#F75652" stroke-width="2" stroke-linejoin="round"/>
</svg>
