<svg width="275" height="66" viewBox="0 0 275 66" fill="none" xmlns="http://www.w3.org/2000/svg">
<path d="M81.5629 38.94C80.4989 38.94 79.5376 39.1267 78.6789 39.5C77.8203 39.8547 77.0923 40.3867 76.4949 41.096C75.8976 41.7867 75.4403 42.636 75.1229 43.644C74.8056 44.6333 74.6469 45.7533 74.6469 47.004C74.6469 48.6467 74.8989 50.0747 75.4029 51.288C75.9256 52.5013 76.6909 53.4347 77.6989 54.088C78.7256 54.7413 80.0043 55.068 81.5349 55.068C82.4123 55.068 83.2429 54.9933 84.0269 54.844C84.8109 54.6947 85.5763 54.508 86.3229 54.284V56.468C85.5763 56.748 84.8016 56.9533 83.9989 57.084C83.2149 57.2147 82.2723 57.28 81.1709 57.28C79.1363 57.28 77.4376 56.86 76.0749 56.02C74.7123 55.18 73.6856 53.9853 72.9949 52.436C72.3229 50.8867 71.9869 49.0667 71.9869 46.976C71.9869 45.464 72.1923 44.0827 72.6029 42.832C73.0323 41.5813 73.6483 40.4987 74.4509 39.584C75.2723 38.6693 76.2803 37.9693 77.4749 37.484C78.6696 36.98 80.0416 36.728 81.5909 36.728C82.6176 36.728 83.6069 36.8307 84.5589 37.036C85.5109 37.2413 86.3603 37.5307 87.1069 37.904L86.0989 40.032C85.4829 39.752 84.7923 39.5 84.0269 39.276C83.2803 39.052 82.4589 38.94 81.5629 38.94ZM92.8143 41.964C92.8143 42.3187 92.7957 42.6827 92.7583 43.056C92.7397 43.4293 92.7117 43.7653 92.6743 44.064H92.8423C93.1597 43.5413 93.561 43.112 94.0463 42.776C94.5317 42.44 95.073 42.188 95.6703 42.02C96.2677 41.8333 96.8837 41.74 97.5183 41.74C98.7317 41.74 99.7397 41.936 100.542 42.328C101.364 42.7013 101.98 43.2893 102.39 44.092C102.801 44.8947 103.006 45.94 103.006 47.228V57H100.57V47.396C100.57 46.1827 100.3 45.2773 99.7583 44.68C99.217 44.0827 98.3677 43.784 97.2103 43.784C96.0903 43.784 95.213 43.9987 94.5783 44.428C93.9437 44.8387 93.4863 45.4547 93.2063 46.276C92.945 47.0787 92.8143 48.068 92.8143 49.244V57H90.3503V35.72H92.8143V41.964ZM113.343 41.74C115.172 41.74 116.526 42.1413 117.403 42.944C118.28 43.7467 118.719 45.0253 118.719 46.78V57H116.927L116.451 54.872H116.339C115.91 55.4133 115.462 55.8707 114.995 56.244C114.547 56.5987 114.024 56.86 113.427 57.028C112.848 57.196 112.139 57.28 111.299 57.28C110.403 57.28 109.591 57.1213 108.863 56.804C108.154 56.4867 107.594 56.0013 107.183 55.348C106.772 54.676 106.567 53.836 106.567 52.828C106.567 51.3347 107.155 50.1867 108.331 49.384C109.507 48.5627 111.318 48.1147 113.763 48.04L116.311 47.956V47.06C116.311 45.8093 116.04 44.9413 115.499 44.456C114.958 43.9707 114.192 43.728 113.203 43.728C112.419 43.728 111.672 43.8493 110.963 44.092C110.254 44.316 109.591 44.5773 108.975 44.876L108.219 43.028C108.872 42.6733 109.647 42.3747 110.543 42.132C111.439 41.8707 112.372 41.74 113.343 41.74ZM114.071 49.748C112.204 49.8227 110.907 50.1213 110.179 50.644C109.47 51.1667 109.115 51.904 109.115 52.856C109.115 53.696 109.367 54.312 109.871 54.704C110.394 55.096 111.056 55.292 111.859 55.292C113.128 55.292 114.183 54.9467 115.023 54.256C115.863 53.5467 116.283 52.464 116.283 51.008V49.664L114.071 49.748ZM136.402 49.468C136.402 50.7187 136.234 51.8293 135.898 52.8C135.581 53.752 135.114 54.564 134.498 55.236C133.901 55.908 133.164 56.4213 132.286 56.776C131.428 57.112 130.466 57.28 129.402 57.28C128.413 57.28 127.498 57.112 126.658 56.776C125.818 56.4213 125.09 55.908 124.474 55.236C123.858 54.564 123.373 53.752 123.018 52.8C122.682 51.8293 122.514 50.7187 122.514 49.468C122.514 47.8067 122.794 46.4067 123.354 45.268C123.914 44.1107 124.717 43.2333 125.762 42.636C126.808 42.02 128.049 41.712 129.486 41.712C130.849 41.712 132.044 42.02 133.07 42.636C134.116 43.2333 134.928 44.1107 135.506 45.268C136.104 46.4067 136.402 47.8067 136.402 49.468ZM125.062 49.468C125.062 50.644 125.212 51.6707 125.51 52.548C125.828 53.4067 126.313 54.0693 126.966 54.536C127.62 55.0027 128.45 55.236 129.458 55.236C130.466 55.236 131.297 55.0027 131.95 54.536C132.604 54.0693 133.08 53.4067 133.378 52.548C133.696 51.6707 133.854 50.644 133.854 49.468C133.854 48.2733 133.696 47.256 133.378 46.416C133.061 45.576 132.576 44.932 131.922 44.484C131.288 44.0173 130.457 43.784 129.43 43.784C127.9 43.784 126.789 44.288 126.098 45.296C125.408 46.304 125.062 47.6947 125.062 49.468ZM150.079 52.856C150.079 53.8267 149.837 54.6387 149.351 55.292C148.866 55.9453 148.175 56.44 147.279 56.776C146.383 57.112 145.319 57.28 144.087 57.28C143.042 57.28 142.137 57.196 141.371 57.028C140.625 56.86 139.962 56.6267 139.383 56.328V54.088C139.981 54.3867 140.699 54.6667 141.539 54.928C142.398 55.1707 143.266 55.292 144.143 55.292C145.394 55.292 146.299 55.096 146.859 54.704C147.419 54.2933 147.699 53.752 147.699 53.08C147.699 52.7067 147.597 52.3707 147.391 52.072C147.186 51.7733 146.813 51.4747 146.271 51.176C145.749 50.8773 144.993 50.5413 144.003 50.168C143.033 49.7947 142.202 49.4213 141.511 49.048C140.821 48.6747 140.289 48.2267 139.915 47.704C139.542 47.1813 139.355 46.5093 139.355 45.688C139.355 44.4187 139.869 43.4387 140.895 42.748C141.941 42.0573 143.303 41.712 144.983 41.712C145.898 41.712 146.747 41.8053 147.531 41.992C148.334 42.16 149.081 42.4027 149.771 42.72L148.931 44.68C148.521 44.4933 148.082 44.3347 147.615 44.204C147.167 44.0547 146.71 43.9427 146.243 43.868C145.777 43.7747 145.301 43.728 144.815 43.728C143.807 43.728 143.033 43.896 142.491 44.232C141.969 44.5493 141.707 44.988 141.707 45.548C141.707 45.9587 141.829 46.3133 142.071 46.612C142.314 46.892 142.715 47.172 143.275 47.452C143.854 47.7133 144.619 48.0307 145.571 48.404C146.523 48.7587 147.335 49.1227 148.007 49.496C148.679 49.8693 149.193 50.3267 149.547 50.868C149.902 51.3907 150.079 52.0533 150.079 52.856ZM156.142 46.836C156.142 47.1347 156.123 47.5267 156.086 48.012C156.067 48.4973 156.048 48.9173 156.03 49.272H156.142C156.254 49.1227 156.422 48.908 156.646 48.628C156.87 48.348 157.094 48.068 157.318 47.788C157.56 47.4893 157.766 47.2467 157.934 47.06L162.722 41.992H165.606L159.53 48.404L166.026 57H163.058L157.85 50L156.142 51.484V57H153.706V35.72H156.142V46.836ZM174.347 41.74C176.176 41.74 177.53 42.1413 178.407 42.944C179.284 43.7467 179.723 45.0253 179.723 46.78V57H177.931L177.455 54.872H177.343C176.914 55.4133 176.466 55.8707 175.999 56.244C175.551 56.5987 175.028 56.86 174.431 57.028C173.852 57.196 173.143 57.28 172.303 57.28C171.407 57.28 170.595 57.1213 169.867 56.804C169.158 56.4867 168.598 56.0013 168.187 55.348C167.776 54.676 167.571 53.836 167.571 52.828C167.571 51.3347 168.159 50.1867 169.335 49.384C170.511 48.5627 172.322 48.1147 174.767 48.04L177.315 47.956V47.06C177.315 45.8093 177.044 44.9413 176.503 44.456C175.962 43.9707 175.196 43.728 174.207 43.728C173.423 43.728 172.676 43.8493 171.967 44.092C171.258 44.316 170.595 44.5773 169.979 44.876L169.223 43.028C169.876 42.6733 170.651 42.3747 171.547 42.132C172.443 41.8707 173.376 41.74 174.347 41.74ZM175.075 49.748C173.208 49.8227 171.911 50.1213 171.183 50.644C170.474 51.1667 170.119 51.904 170.119 52.856C170.119 53.696 170.371 54.312 170.875 54.704C171.398 55.096 172.06 55.292 172.863 55.292C174.132 55.292 175.187 54.9467 176.027 54.256C176.867 53.5467 177.287 52.464 177.287 51.008V49.664L175.075 49.748ZM191.358 41.712C191.638 41.712 191.937 41.7307 192.254 41.768C192.59 41.7867 192.879 41.824 193.122 41.88L192.814 44.148C192.571 44.092 192.301 44.0453 192.002 44.008C191.722 43.9707 191.451 43.952 191.19 43.952C190.611 43.952 190.061 44.0733 189.538 44.316C189.015 44.5587 188.549 44.904 188.138 45.352C187.727 45.7813 187.401 46.304 187.158 46.92C186.934 47.536 186.822 48.2267 186.822 48.992V57H184.358V41.992H186.374L186.654 44.736H186.766C187.083 44.176 187.466 43.672 187.914 43.224C188.362 42.7573 188.875 42.3933 189.454 42.132C190.033 41.852 190.667 41.712 191.358 41.712ZM208.469 41.992V57H206.453L206.089 55.012H205.977C205.659 55.5347 205.249 55.964 204.745 56.3C204.241 56.636 203.69 56.8787 203.093 57.028C202.495 57.196 201.87 57.28 201.217 57.28C200.022 57.28 199.014 57.0933 198.193 56.72C197.39 56.328 196.783 55.7307 196.373 54.928C195.962 54.1253 195.757 53.0893 195.757 51.82V41.992H198.249V51.652C198.249 52.8467 198.519 53.7427 199.061 54.34C199.602 54.9373 200.442 55.236 201.581 55.236C202.701 55.236 203.578 55.0307 204.213 54.62C204.866 54.1907 205.323 53.5747 205.585 52.772C205.865 51.9507 206.005 50.9613 206.005 49.804V41.992H208.469ZM223.005 52.856C223.005 53.8267 222.762 54.6387 222.277 55.292C221.792 55.9453 221.101 56.44 220.205 56.776C219.309 57.112 218.245 57.28 217.013 57.28C215.968 57.28 215.062 57.196 214.297 57.028C213.55 56.86 212.888 56.6267 212.309 56.328V54.088C212.906 54.3867 213.625 54.6667 214.465 54.928C215.324 55.1707 216.192 55.292 217.069 55.292C218.32 55.292 219.225 55.096 219.785 54.704C220.345 54.2933 220.625 53.752 220.625 53.08C220.625 52.7067 220.522 52.3707 220.317 52.072C220.112 51.7733 219.738 51.4747 219.197 51.176C218.674 50.8773 217.918 50.5413 216.929 50.168C215.958 49.7947 215.128 49.4213 214.437 49.048C213.746 48.6747 213.214 48.2267 212.841 47.704C212.468 47.1813 212.281 46.5093 212.281 45.688C212.281 44.4187 212.794 43.4387 213.821 42.748C214.866 42.0573 216.229 41.712 217.909 41.712C218.824 41.712 219.673 41.8053 220.457 41.992C221.26 42.16 222.006 42.4027 222.697 42.72L221.857 44.68C221.446 44.4933 221.008 44.3347 220.541 44.204C220.093 44.0547 219.636 43.9427 219.169 43.868C218.702 43.7747 218.226 43.728 217.741 43.728C216.733 43.728 215.958 43.896 215.417 44.232C214.894 44.5493 214.633 44.988 214.633 45.548C214.633 45.9587 214.754 46.3133 214.997 46.612C215.24 46.892 215.641 47.172 216.201 47.452C216.78 47.7133 217.545 48.0307 218.497 48.404C219.449 48.7587 220.261 49.1227 220.933 49.496C221.605 49.8693 222.118 50.3267 222.473 50.868C222.828 51.3907 223.005 52.0533 223.005 52.856ZM236.404 52.856C236.404 53.8267 236.161 54.6387 235.676 55.292C235.19 55.9453 234.5 56.44 233.604 56.776C232.708 57.112 231.644 57.28 230.412 57.28C229.366 57.28 228.461 57.196 227.696 57.028C226.949 56.86 226.286 56.6267 225.708 56.328V54.088C226.305 54.3867 227.024 54.6667 227.864 54.928C228.722 55.1707 229.59 55.292 230.468 55.292C231.718 55.292 232.624 55.096 233.184 54.704C233.744 54.2933 234.024 53.752 234.024 53.08C234.024 52.7067 233.921 52.3707 233.716 52.072C233.51 51.7733 233.137 51.4747 232.596 51.176C232.073 50.8773 231.317 50.5413 230.328 50.168C229.357 49.7947 228.526 49.4213 227.836 49.048C227.145 48.6747 226.613 48.2267 226.24 47.704C225.866 47.1813 225.68 46.5093 225.68 45.688C225.68 44.4187 226.193 43.4387 227.22 42.748C228.265 42.0573 229.628 41.712 231.308 41.712C232.222 41.712 233.072 41.8053 233.856 41.992C234.658 42.16 235.405 42.4027 236.096 42.72L235.256 44.68C234.845 44.4933 234.406 44.3347 233.94 44.204C233.492 44.0547 233.034 43.9427 232.568 43.868C232.101 43.7747 231.625 43.728 231.14 43.728C230.132 43.728 229.357 43.896 228.816 44.232C228.293 44.5493 228.032 44.988 228.032 45.548C228.032 45.9587 228.153 46.3133 228.396 46.612C228.638 46.892 229.04 47.172 229.6 47.452C230.178 47.7133 230.944 48.0307 231.896 48.404C232.848 48.7587 233.66 49.1227 234.332 49.496C235.004 49.8693 235.517 50.3267 235.872 50.868C236.226 51.3907 236.404 52.0533 236.404 52.856ZM245.826 41.712C247.114 41.712 248.215 41.992 249.13 42.552C250.063 43.112 250.773 43.9053 251.258 44.932C251.762 45.94 252.014 47.1253 252.014 48.488V49.972H241.738C241.775 51.6707 242.205 52.968 243.026 53.864C243.866 54.7413 245.033 55.18 246.526 55.18C247.478 55.18 248.318 55.096 249.046 54.928C249.793 54.7413 250.558 54.48 251.342 54.144V56.3C250.577 56.636 249.821 56.8787 249.074 57.028C248.327 57.196 247.441 57.28 246.414 57.28C244.995 57.28 243.735 56.9907 242.634 56.412C241.551 55.8333 240.702 54.9747 240.086 53.836C239.489 52.6787 239.19 51.2693 239.19 49.608C239.19 47.9653 239.461 46.556 240.002 45.38C240.562 44.204 241.337 43.2987 242.326 42.664C243.334 42.0293 244.501 41.712 245.826 41.712ZM245.798 43.728C244.622 43.728 243.689 44.1107 242.998 44.876C242.326 45.6227 241.925 46.668 241.794 48.012H249.438C249.438 47.1533 249.307 46.4067 249.046 45.772C248.785 45.1373 248.383 44.6427 247.842 44.288C247.319 43.9147 246.638 43.728 245.798 43.728ZM258.299 57H255.835V35.72H258.299V57ZM265.517 57H263.053V35.72H265.517V57Z" fill="#00196D"/>
<path d="M8.06844 21.918L11.4595 23.4067C13.6425 24.3651 16.1831 23.2997 17.0296 21.0709L18.3461 17.6046C19.7005 17.4764 21.09 17.4946 22.496 17.6735C23.9021 17.8523 25.2519 18.1826 26.5311 18.6457L26.9378 22.3312C27.1993 24.701 29.3923 26.3685 31.7458 25.9872L35.4015 25.3948C36.9978 27.6345 38.1068 30.2268 38.5976 33.0025L35.6084 35.1981C33.6869 36.6095 33.3392 39.3424 34.8462 41.1899L37.1905 44.064C36.0204 46.6285 34.2977 48.8606 32.1916 50.6292L28.8006 49.1405C26.6175 48.1821 24.0769 49.2475 23.2304 51.4763L21.914 54.9426C20.5595 55.0708 19.1701 55.0526 17.764 54.8737C16.358 54.6949 15.0082 54.3646 13.729 53.9014L13.3222 50.216C13.0607 47.8462 10.8677 46.1787 8.51428 46.56L4.85852 47.1523C3.26229 44.9127 2.15326 42.3204 1.66248 39.5447L4.65169 37.3491C6.5732 35.9377 6.92084 33.2048 5.41387 31.3573L3.06954 28.4832C4.23963 25.9187 5.96234 23.6866 8.06844 21.918Z" fill="#00196D"/>
<path d="M26.3301 37.0623C25.8945 40.4865 22.7655 42.9092 19.3414 42.4736C15.9172 42.0381 13.4944 38.9091 13.93 35.4849C14.3656 32.0607 17.4945 29.638 20.9187 30.0736C24.3429 30.5091 26.7656 33.6381 26.3301 37.0623Z" fill="#00196D"/>
<path d="M8.06844 21.918L11.4595 23.4067C13.6425 24.3651 16.1831 23.2997 17.0296 21.0709L18.3461 17.6046C19.7005 17.4764 21.09 17.4946 22.496 17.6735C23.9021 17.8523 25.2519 18.1826 26.5311 18.6457L26.9378 22.3312C27.1993 24.701 29.3923 26.3685 31.7458 25.9872L35.4015 25.3948C36.9978 27.6345 38.1068 30.2268 38.5976 33.0025L35.6084 35.1981C33.6869 36.6095 33.3392 39.3424 34.8462 41.1899L37.1905 44.064C36.0204 46.6285 34.2977 48.8606 32.1916 50.6292L28.8006 49.1405C26.6175 48.1821 24.0769 49.2475 23.2304 51.4763L21.914 54.9426C20.5595 55.0708 19.1701 55.0526 17.764 54.8737C16.358 54.6949 15.0082 54.3646 13.729 53.9014L13.3222 50.216C13.0607 47.8462 10.8677 46.1787 8.51428 46.56L4.85852 47.1523C3.26229 44.9127 2.15326 42.3204 1.66248 39.5447L4.65169 37.3491C6.5732 35.9377 6.92084 33.2048 5.41387 31.3573L3.06954 28.4832C4.23963 25.9187 5.96234 23.6866 8.06844 21.918Z" stroke="#F75652" stroke-width="2" stroke-linejoin="round"/>
<path d="M26.3301 37.0623C25.8945 40.4865 22.7655 42.9092 19.3414 42.4736C15.9172 42.0381 13.4944 38.9091 13.93 35.4849C14.3656 32.0607 17.4945 29.638 20.9187 30.0736C24.3429 30.5091 26.7656 33.6381 26.3301 37.0623Z" stroke="#F75652" stroke-width="2" stroke-linejoin="round"/>
<path d="M41.3002 33.8174L44.136 34.6751C45.9617 35.2272 47.8775 34.1378 48.3364 32.2865L49.0501 29.4073C50.1136 29.1758 51.2189 29.0572 52.3528 29.0647C53.4867 29.0721 54.5904 29.2051 55.6507 29.4505L56.3267 32.3387C56.7613 34.1959 58.6628 35.3103 60.4955 34.7821L63.3424 33.9616C64.8246 35.5875 65.9537 37.5403 66.6093 39.6979L64.4454 41.728C63.0543 43.033 63.0399 45.2369 64.4137 46.56L66.5509 48.6182C65.8672 50.7671 64.7126 52.7049 63.2092 54.3113L60.3734 53.4536C58.5477 52.9014 56.6318 53.9909 56.1729 55.8422L55.4593 58.7214C54.3958 58.9528 53.2905 59.0714 52.1566 59.064C51.0227 59.0566 49.919 58.9236 48.8586 58.6782L48.1827 55.7899C47.7481 53.9328 45.8466 52.8183 44.0139 53.3466L41.167 54.1671C39.6848 52.5411 38.5557 50.5884 37.9001 48.4308L40.064 46.4007C41.455 45.0957 41.4695 42.8918 40.0956 41.5687L37.9585 39.5105C38.6422 37.3616 39.7968 35.4238 41.3002 33.8174Z" stroke="white" stroke-width="2" stroke-linejoin="round"/>
<path d="M57.2546 44.097C57.2365 46.8584 54.9834 49.0823 52.222 49.0642C49.4606 49.0462 47.2367 46.793 47.2548 44.0316C47.2729 41.2703 49.526 39.0464 52.2874 39.0644C55.0488 39.0825 57.2727 41.3357 57.2546 44.097Z" stroke="white" stroke-width="2" stroke-linejoin="round"/>
<path d="M37.4836 4.78732L39.9727 6.0158C41.575 6.80666 43.5216 6.17843 44.2403 4.63844L45.3581 2.24343C46.3793 2.22084 47.4213 2.30395 48.4698 2.50199C49.5183 2.70003 50.5189 3.00273 51.4615 3.39626L51.6287 6.03397C51.7362 7.73002 53.3194 9.02496 55.0999 8.87305L57.8655 8.63708C58.9795 10.3081 59.7147 12.205 59.979 14.201L57.6536 15.6091C56.1587 16.5143 55.7954 18.4375 56.8571 19.8256L58.5088 21.9849C57.5347 23.7469 56.1582 25.245 54.5115 26.3946L52.0224 25.1661C50.4201 24.3752 48.4736 25.0035 47.7548 26.5435L46.637 28.9385C45.6158 28.9611 44.5738 28.8779 43.5253 28.6799C42.4768 28.4819 41.4762 28.1792 40.5336 27.7856L40.3664 25.1479C40.2589 23.4519 38.6757 22.1569 36.8952 22.3088L34.1296 22.5448C33.0156 20.8738 32.2804 18.9769 32.0161 16.9809L34.3415 15.5728C35.8364 14.6676 36.1997 12.7444 35.138 11.3563L33.4863 9.19697C34.4605 7.43496 35.8369 5.93691 37.4836 4.78732Z" fill="#F75652"/>
<path d="M50.6208 16.4642C50.1657 18.8738 47.7268 20.4362 45.1735 19.9539C42.6201 19.4717 40.9191 17.1273 41.3743 14.7177C41.8294 12.3081 44.2683 10.7457 46.8216 11.228C49.375 11.7102 51.076 14.0546 50.6208 16.4642Z" fill="#F75652"/>
<path d="M37.4836 4.78732L39.9727 6.0158C41.575 6.80666 43.5216 6.17843 44.2403 4.63844L45.3581 2.24343C46.3793 2.22084 47.4213 2.30395 48.4698 2.50199C49.5183 2.70003 50.5189 3.00273 51.4615 3.39626L51.6287 6.03397C51.7362 7.73002 53.3194 9.02496 55.0999 8.87305L57.8655 8.63708C58.9795 10.3081 59.7147 12.205 59.979 14.201L57.6536 15.6091C56.1587 16.5143 55.7954 18.4375 56.8571 19.8256L58.5088 21.9849C57.5347 23.7469 56.1582 25.245 54.5115 26.3946L52.0224 25.1661C50.4201 24.3752 48.4736 25.0035 47.7548 26.5435L46.637 28.9385C45.6158 28.9611 44.5738 28.8779 43.5253 28.6799C42.4768 28.4819 41.4762 28.1792 40.5336 27.7856L40.3664 25.1479C40.2589 23.4519 38.6757 22.1569 36.8952 22.3088L34.1296 22.5448C33.0156 20.8738 32.2804 18.9769 32.0161 16.9809L34.3415 15.5728C35.8364 14.6676 36.1997 12.7444 35.138 11.3563L33.4863 9.19697C34.4605 7.43496 35.8369 5.93691 37.4836 4.78732Z" stroke="#00196D" stroke-width="2" stroke-linejoin="round"/>
<path d="M50.6208 16.4642C50.1657 18.8738 47.7268 20.4362 45.1735 19.9539C42.6201 19.4717 40.9191 17.1273 41.3743 14.7177C41.8294 12.3081 44.2683 10.7457 46.8216 11.228C49.375 11.7102 51.076 14.0546 50.6208 16.4642Z" stroke="#00196D" stroke-width="2" stroke-linejoin="round"/>
</svg>
